HIERARCHY
ROOT Root
{
	OFFSET 0.00 0.00 0.00
	CHANNELS 6 Xposition Yposition Zposition Xrotation Yrotation Zrotation
	JOINT L_Femur
	{
		OFFSET 3.25772 0.00000 0.00000
		CHANNELS 3 Xrotation Yrotation Zrotation
		JOINT L_Tibia
		{
			OFFSET 0.00000 -15.35355 0.00000
			CHANNELS 3 Xrotation Yrotation Zrotation
			JOINT L_Foot
			{
				OFFSET 0.00000 -16.48949 0.00000
				CHANNELS 3 Xrotation Yrotation Zrotation
				JOINT L_Toe
				{
					OFFSET 0.00000 -1.72224 6.42750
					CHANNELS 3 Xrotation Yrotation Zrotation
					End Site
					{
						OFFSET 0.00000 0.00000 2.95275
					}
				}
			}
		}
	}
	JOINT R_Femur
	{
		OFFSET -3.25772 0.00000 0.00000
		CHANNELS 3 Xrotation Yrotation Zrotation
		JOINT R_Tibia
		{
			OFFSET 0.00000 -15.35355 0.00000
			CHANNELS 3 Xrotation Yrotation Zrotation
			JOINT R_Foot
			{
				OFFSET 0.00000 -16.48949 0.00000
				CHANNELS 3 Xrotation Yrotation Zrotation
				JOINT R_Toe
				{
					OFFSET 0.00000 -1.72224 6.42750
					CHANNELS 3 Xrotation Yrotation Zrotation
					End Site
					{
						OFFSET 0.00000 0.00000 2.95275
					}
				}
			}
		}
	}
	JOINT LowerBack
	{
		OFFSET 0.00000 0.03937 0.00000
		CHANNELS 3 Xrotation Yrotation Zrotation
		JOINT Thorax
		{
			OFFSET 0.00000 10.14986 0.00000
			CHANNELS 3 Xrotation Yrotation Zrotation
			JOINT Neck
			{
				OFFSET 0.00000 9.84250 0.00000
				CHANNELS 3 Xrotation Yrotation Zrotation
				JOINT head
				{
					OFFSET 0.00000 4.54023 0.00000
					CHANNELS 3 Xrotation Yrotation Zrotation
					End Site
					{
						OFFSET 0.00000 4.52755 0.00000
					}
				}
			}
			JOINT L_Collar
			{
				OFFSET 0.00000 9.84250 0.00000
				CHANNELS 3 Xrotation Yrotation Zrotation
				JOINT L_Humerus
				{
					OFFSET 7.21510 -0.00003 0.00000
					CHANNELS 3 Xrotation Yrotation Zrotation
					JOINT L_Elbow
					{
						OFFSET 10.66411 -0.00004 0.00000
						CHANNELS 3 Xrotation Yrotation Zrotation
						JOINT L_Wrist
						{
							OFFSET 8.93656 -0.00003 0.00000
							CHANNELS 3 Xrotation Yrotation Zrotation
							JOINT L_Wrist_End
							{
								OFFSET 3.93700 -0.00001 0.00000
								CHANNELS 3 Xrotation Yrotation Zrotation
							}
						}
					}
				}
			}
			JOINT R_Collar
			{
				OFFSET 0.00000 9.84250 0.00000
				CHANNELS 3 Xrotation Yrotation Zrotation
				JOINT R_Humerus
				{
					OFFSET -7.21510 -0.00003 0.00000
					CHANNELS 3 Xrotation Yrotation Zrotation
					JOINT R_Elbow
					{
						OFFSET -10.66411 -0.00004 0.00000
						CHANNELS 3 Xrotation Yrotation Zrotation
						JOINT R_Wrist
						{
							OFFSET -8.93656 -0.00003 0.00000
							CHANNELS 3 Xrotation Yrotation Zrotation
							JOINT R_Wrist_End
							{
								OFFSET -5.41338 -0.00002 0.00000
								CHANNELS 3 Xrotation Yrotation Zrotation
							}
						}
					}
				}
			}
		}
	}
}
MOTION
Frames: 17
Frame Time: 0.008333
 3.3066 33.9820 1.6146 -1.3493 -3.7929 -2.2361 5.9316 26.9859 7.5197 2.5109 -0.0000 0.0000 -0.7635 4.0997 0.2041 -34.6917 0.0000 0.0000 6.5642 4.2277 -1.7159 3.7015 -0.0000 0.0000 0.0933 -11.5851 1.5268 -32.6114 0.0000 -0.0000 -16.2101 -1.5281 -3.3765 26.8492 3.8814 4.2805 -18.2382 -12.3191 7.1783 -8.9863 -8.9162 -18.2253 7.4067 7.9467 17.8620 -26.3391 12.8129 -29.6526 -0.0000 -8.3695 -0.0000 -4.0267 3.4343 21.5065 -0.0000 0.0000 -0.0000 7.3325 -3.8018 -18.9012 -16.6253 -5.9707 23.7759 -0.0001 15.3394 0.0000 -18.4340 -14.1306 -19.0602 -0.0000 -0.0000 0.0000
 3.3094 33.9842 1.6121 -1.3431 -3.8084 -2.2233 5.9386 27.0414 7.4848 2.4824 0.0000 0.0000 -0.7290 4.0635 0.2096 -34.6829 0.0000 -0.0000 6.5322 4.1874 -1.7336 3.7308 -0.0000 0.0000 0.0879 -11.5169 1.5313 -32.6185 0.0000 -0.0000 -16.1930 -1.5498 -3.3882 26.8498 3.8615 4.2837 -18.5250 -12.4816 7.0957 -8.5817 -8.7594 -18.1483 7.2992 7.9635 17.7916 -26.2797 12.8552 -29.5821 -0.0000 -8.4535 -0.0000 -3.9206 3.5416 21.4594 -0.0000 0.0000 -0.0000 7.3048 -3.8019 -18.8730 -16.6904 -5.9260 23.7256 -0.0001 15.3611 0.0000 -18.3372 -14.1780 -19.0499 -0.0000 -0.0000 0.0000
 3.3094 33.9842 1.6121 -1.3431 -3.8084 -2.2233 5.9386 27.0414 7.4848 2.4824 0.0000 0.0000 -0.7290 4.0635 0.2096 -34.6829 0.0000 -0.0000 6.5322 4.1874 -1.7336 3.7308 -0.0000 0.0000 0.0879 -11.5169 1.5313 -32.6185 0.0000 -0.0000 -16.1930 -1.5498 -3.3882 26.8498 3.8615 4.2837 -18.5250 -12.4816 7.0957 -8.5817 -8.7594 -18.1483 7.2992 7.9635 17.7916 -26.2797 12.8552 -29.5821 -0.0000 -8.4535 -0.0000 -3.9206 3.5416 21.4594 -0.0000 0.0000 -0.0000 7.3048 -3.8019 -18.8730 -16.6904 -5.9260 23.7256 -0.0001 15.3611 0.0000 -18.3372 -14.1780 -19.0499 -0.0000 -0.0000 0.0000
 3.3059 33.9834 1.6107 -1.3388 -3.8211 -2.2175 5.9373 26.9492 7.4826 2.5113 0.0000 -0.0000 -0.7436 4.1797 0.2987 -34.6061 0.0000 -0.0000 6.5380 4.0775 -1.7064 3.6303 -0.0000 -0.0000 -0.1233 -11.5588 1.9951 -32.1545 0.0000 0.0000 -16.1941 -1.5457 -3.3994 26.8224 3.8621 4.2743 -18.5898 -12.6073 7.0049 -8.3861 -8.7160 -18.0486 7.3842 7.9750 17.8042 -26.3017 12.8446 -29.5969 -0.0000 -8.4423 -0.0000 -3.8942 3.5815 21.4515 -0.0000 -0.0000 0.0000 7.3302 -3.7966 -18.8743 -16.6933 -5.9244 23.7334 -0.0001 15.3693 0.0000 -18.4465 -14.1547 -19.0278 -0.0000 -0.0000 0.0000
 3.3083 33.9821 1.6084 -1.3229 -3.8158 -2.1975 5.9210 26.9345 7.4666 2.5240 0.0000 0.0000 -0.7595 4.1601 0.2754 -34.6203 0.0000 0.0000 6.5087 4.0538 -1.7252 3.6402 -0.0000 0.0000 -0.1599 -11.5556 2.0713 -32.1290 0.0000 -0.0000 -16.1574 -1.5554 -3.4044 26.7407 3.8398 4.2550 -18.9673 -13.3024 6.0900 -7.4287 -8.3198 -16.7273 7.3757 7.9903 17.8137 -26.2906 12.8595 -29.6086 -0.0000 -8.4352 -0.0000 -3.8835 3.5428 21.4253 -0.0000 0.0000 -0.0000 7.3783 -3.7818 -18.8582 -16.7130 -5.9128 23.7213 -0.0001 15.3401 0.0000 -18.3571 -14.1664 -18.9932 -0.0000 0.0000 -0.0000
 3.3083 33.9821 1.6084 -1.3229 -3.8158 -2.1975 5.9210 26.9345 7.4666 2.5240 0.0000 0.0000 -0.7595 4.1601 0.2754 -34.6203 0.0000 0.0000 6.5087 4.0538 -1.7252 3.6402 -0.0000 0.0000 -0.1599 -11.5556 2.0713 -32.1290 0.0000 -0.0000 -16.1574 -1.5554 -3.4044 26.7407 3.8398 4.2550 -18.9673 -13.3024 6.0900 -7.4287 -8.3198 -16.7273 7.3757 7.9903 17.8137 -26.2906 12.8595 -29.6086 -0.0000 -8.4352 -0.0000 -3.8835 3.5428 21.4253 -0.0000 0.0000 -0.0000 7.3783 -3.7818 -18.8582 -16.7130 -5.9128 23.7213 -0.0001 15.3401 0.0000 -18.3571 -14.1664 -18.9932 -0.0000 0.0000 -0.0000
 3.3088 33.9827 1.6053 -1.3270 -3.8181 -2.1982 5.9145 26.7359 7.4565 2.5914 -0.0000 0.0000 -0.7790 4.3724 0.2402 -34.6840 0.0000 -0.0000 6.5033 4.0693 -1.7300 3.6530 -0.0000 -0.0000 -0.1571 -11.5480 2.0205 -32.1244 0.0000 0.0000 -16.1468 -1.5550 -3.4019 26.7520 3.8422 4.2572 -19.1638 -13.5361 5.8878 -7.0983 -8.1904 -16.4959 7.3381 7.9864 17.8057 -26.2379 12.8349 -29.6345 -0.0000 -8.4207 -0.0000 -3.9063 3.5556 21.4817 -0.0000 -0.0000 0.0000 7.3562 -3.8034 -18.8574 -16.7502 -5.9310 23.7066 -0.0001 15.3738 0.0000 -18.3324 -14.1889 -18.9458 -0.0000 -0.0000 0.0000
 3.3088 33.9827 1.6053 -1.3270 -3.8181 -2.1982 5.9145 26.7359 7.4565 2.5914 -0.0000 0.0000 -0.7790 4.3724 0.2402 -34.6840 0.0000 -0.0000 6.5033 4.0693 -1.7300 3.6530 -0.0000 -0.0000 -0.1571 -11.5480 2.0205 -32.1244 0.0000 0.0000 -16.1468 -1.5550 -3.4019 26.7520 3.8422 4.2572 -19.1638 -13.5361 5.8878 -7.0983 -8.1904 -16.4959 7.3381 7.9864 17.8057 -26.2379 12.8349 -29.6345 -0.0000 -8.4207 -0.0000 -3.9063 3.5556 21.4817 -0.0000 -0.0000 0.0000 7.3562 -3.8034 -18.8574 -16.7502 -5.9310 23.7066 -0.0001 15.3738 0.0000 -18.3324 -14.1889 -18.9458 -0.0000 -0.0000 0.0000
 3.3094 33.9849 1.6055 -1.3211 -3.8113 -2.1926 5.9037 27.0285 7.4612 2.5207 -0.0000 -0.0000 -0.7491 4.0748 0.2962 -34.5857 0.0000 0.0000 6.4878 3.9883 -1.7341 3.6647 -0.0000 0.0000 -0.1451 -11.4801 2.0226 -32.1244 0.0000 0.0000 -16.1414 -1.5538 -3.4041 26.7381 3.8404 4.2517 -19.2722 -13.6831 5.7704 -6.8809 -8.1124 -16.3435 7.3652 7.9908 17.7746 -26.2879 12.8400 -29.6079 -0.0000 -8.4362 -0.0000 -3.9688 3.5795 21.4214 -0.0000 0.0000 -0.0000 7.3632 -3.8143 -18.8438 -16.7199 -5.9219 23.7069 -0.0001 15.3660 0.0000 -18.3283 -14.1835 -19.0517 -0.0000 -0.0000 0.0000
 3.3057 33.9842 1.6036 -1.3212 -3.8138 -2.1982 5.9269 26.7231 7.4398 2.5422 0.0000 0.0000 -0.7294 4.4496 0.2143 -34.6967 0.0000 -0.0000 6.4891 4.0235 -1.7198 3.6637 -0.0000 0.0000 -0.1573 -11.5203 2.0271 -32.1003 0.0000 0.0000 -16.1370 -1.5500 -3.4066 26.7333 3.8442 4.2494 -19.3050 -13.7419 5.7378 -6.8212 -8.0970 -16.3046 7.3705 7.9945 17.7734 -26.3513 12.8515 -29.6019 -0.0000 -8.4310 -0.0000 -4.0128 3.5470 21.4301 -0.0000 -0.0000 0.0000 7.3905 -3.8192 -18.8353 -16.7062 -5.9115 23.7059 -0.0001 15.3479 0.0000 -18.3412 -14.1565 -19.0288 -0.0000 0.0000 -0.0000
 3.3057 33.9842 1.6036 -1.3212 -3.8138 -2.1982 5.9269 26.7231 7.4398 2.5422 0.0000 0.0000 -0.7294 4.4496 0.2143 -34.6967 0.0000 -0.0000 6.4891 4.0235 -1.7198 3.6637 -0.0000 0.0000 -0.1573 -11.5203 2.0271 -32.1003 0.0000 0.0000 -16.1370 -1.5500 -3.4066 26.7333 3.8442 4.2494 -19.3050 -13.7419 5.7378 -6.8212 -8.0970 -16.3046 7.3705 7.9945 17.7734 -26.3513 12.8515 -29.6019 -0.0000 -8.4310 -0.0000 -4.0128 3.5470 21.4301 -0.0000 -0.0000 0.0000 7.3905 -3.8192 -18.8353 -16.7062 -5.9115 23.7059 -0.0001 15.3479 0.0000 -18.3412 -14.1565 -19.0288 -0.0000 0.0000 -0.0000
 3.3057 33.9842 1.6036 -1.3212 -3.8138 -2.1982 5.9269 26.7231 7.4398 2.5422 0.0000 0.0000 -0.7294 4.4496 0.2143 -34.6967 0.0000 -0.0000 6.4891 4.0235 -1.7198 3.6637 -0.0000 0.0000 -0.1573 -11.5203 2.0271 -32.1003 0.0000 0.0000 -16.1370 -1.5500 -3.4066 26.7333 3.8442 4.2494 -19.3050 -13.7419 5.7378 -6.8212 -8.0970 -16.3046 7.3705 7.9945 17.7734 -26.3513 12.8515 -29.6019 -0.0000 -8.4310 -0.0000 -4.0128 3.5470 21.4301 -0.0000 -0.0000 0.0000 7.3905 -3.8192 -18.8353 -16.7062 -5.9115 23.7059 -0.0001 15.3479 0.0000 -18.3412 -14.1565 -19.0288 -0.0000 0.0000 -0.0000
 3.3089 33.9853 1.6032 -1.3215 -3.8164 -2.1955 5.9088 26.8486 7.4525 2.5476 0.0000 0.0000 -0.7311 4.2806 0.2763 -34.6685 0.0000 -0.0000 6.4827 4.0453 -1.7261 3.6712 -0.0000 0.0000 -0.1434 -11.5420 2.0539 -32.1264 0.0000 0.0000 -16.1287 -1.5558 -3.4038 26.7234 3.8391 4.2526 -19.3495 -13.7738 5.7396 -6.7332 -8.0699 -16.3294 7.3716 7.9851 17.7623 -26.3298 12.8498 -29.6253 -0.0000 -8.3972 -0.0000 -4.0659 3.5750 21.4180 -0.0000 -0.0000 0.0000 7.3828 -3.8272 -18.8422 -16.6942 -5.9020 23.6968 -0.0001 15.3570 0.0000 -18.3842 -14.2294 -18.9850 -0.0000 0.0000 -0.0000
 3.3089 33.9853 1.6032 -1.3215 -3.8164 -2.1955 5.9088 26.8486 7.4525 2.5476 0.0000 0.0000 -0.7311 4.2806 0.2763 -34.6685 0.0000 -0.0000 6.4827 4.0453 -1.7261 3.6712 -0.0000 0.0000 -0.1434 -11.5420 2.0539 -32.1264 0.0000 0.0000 -16.1287 -1.5558 -3.4038 26.7234 3.8391 4.2526 -19.3495 -13.7738 5.7396 -6.7332 -8.0699 -16.3294 7.3716 7.9851 17.7623 -26.3298 12.8498 -29.6253 -0.0000 -8.3972 -0.0000 -4.0659 3.5750 21.4180 -0.0000 -0.0000 0.0000 7.3828 -3.8272 -18.8422 -16.6942 -5.9020 23.6968 -0.0001 15.3570 0.0000 -18.3842 -14.2294 -18.9850 -0.0000 0.0000 -0.0000
 3.3089 33.9853 1.6032 -1.3215 -3.8164 -2.1955 5.9088 26.8486 7.4525 2.5476 0.0000 0.0000 -0.7311 4.2806 0.2763 -34.6685 0.0000 -0.0000 6.4827 4.0453 -1.7261 3.6712 -0.0000 0.0000 -0.1434 -11.5420 2.0539 -32.1264 0.0000 0.0000 -16.1287 -1.5558 -3.4038 26.7234 3.8391 4.2526 -19.3495 -13.7738 5.7396 -6.7332 -8.0699 -16.3294 7.3716 7.9851 17.7623 -26.3298 12.8498 -29.6253 -0.0000 -8.3972 -0.0000 -4.0659 3.5750 21.4180 -0.0000 -0.0000 0.0000 7.3828 -3.8272 -18.8422 -16.6942 -5.9020 23.6968 -0.0001 15.3570 0.0000 -18.3842 -14.2294 -18.9850 -0.0000 0.0000 -0.0000
 3.3106 33.9851 1.5994 -1.3184 -3.8317 -2.1940 5.8893 26.9909 7.4552 2.5398 -0.0000 -0.0000 -0.7358 4.1511 0.3029 -34.6857 0.0000 -0.0000 6.4672 4.0163 -1.7349 3.6758 -0.0000 0.0000 -0.1396 -11.4881 2.0487 -32.1412 0.0000 0.0000 -16.1035 -1.5471 -3.4008 26.7012 3.8516 4.2550 -19.4229 -13.8358 5.7400 -6.6438 -8.0342 -16.3471 7.3359 7.9852 17.7598 -26.2680 12.8280 -29.6600 -0.0000 -8.4262 -0.0000 -4.0374 3.6353 21.4677 -0.0000 0.0000 -0.0000 7.4054 -3.8685 -18.8426 -16.8037 -5.9382 23.6946 -0.0001 15.3671 0.0000 -18.2985 -14.2439 -18.9091 -0.0000 -0.0000 0.0000
 3.3098 33.9854 1.5989 -1.3127 -3.8366 -2.1921 5.8803 26.9819 7.4552 2.5474 -0.0000 -0.0000 -0.7416 4.1743 0.2298 -34.6815 0.0000 -0.0000 6.4681 4.0470 -1.7333 3.6666 -0.0000 0.0000 -0.1421 -11.5301 2.0725 -32.1161 0.0000 0.0000 -16.0930 -1.5404 -3.4056 26.6636 3.8593 4.2540 -19.6098 -14.0710 5.4654 -6.2534 -7.8376 -15.9467 7.4391 7.9911 17.7521 -26.3444 12.8359 -29.6578 -0.0000 -8.4283 -0.0000 -3.9925 3.5974 21.3991 -0.0000 -0.0000 0.0000 7.4436 -3.8743 -18.8166 -16.7932 -5.9087 23.6782 -0.0001 15.3079 0.0000 -18.3100 -14.1789 -18.9417 -0.0000 -0.0000 0.0000
